<svg xmlns="http://www.w3.org/2000/svg"
version="1.1" x="0px" y="0px"
viewBox="30 25 690 788"
style="enable-background:new 0 0 480 608;">
 <g>
  <title>background</title>
  <rect fill="none" id="canvas_background" height="402" width="582" y="-1" x="-1"/>
 </g>
 <g>
  <title>Layer 1</title>
  <g id="svg_1">
   <g stroke="null" id="svg_3">
    <g stroke="null" id="svg_4">
     <path stroke="null" id="svg_5" d="m197.386074,378.493672c-46.579801,0 -90.372381,-18.488684 -123.309674,-52.060743c-32.937293,-33.572059 -51.0764,-78.208608 -51.0764,-125.686093s18.139107,-92.114034 51.0764,-125.686093c32.937293,-33.572059 76.729872,-52.060743 123.309674,-52.060743s90.372381,18.488684 123.309674,52.060743c32.937293,33.572059 51.0764,78.208608 51.0764,125.686093s-18.139107,92.114034 -51.0764,125.686093c-32.937293,33.572059 -76.729872,52.060743 -123.309674,52.060743zm0,-341.4346c-42.896018,0 -83.224522,17.02654 -113.555876,47.943443s-47.036949,72.021612 -47.036949,115.744321s16.704609,84.828422 47.036949,115.744321c30.331354,30.916903 70.659858,47.943443 113.555876,47.943443s83.224522,-17.02654 113.555876,-47.943443c30.332339,-30.915899 47.036949,-72.021612 47.036949,-115.744321s-16.704609,-84.828422 -47.036949,-115.744321c-30.331354,-30.916903 -70.659858,-47.943443 -113.555876,-47.943443z"/>
    </g>
    <g stroke="null" id="svg_6">
     <path stroke="null" id="svg_7" d="m197.386074,201.893655c-11.091742,0 -21.519439,-4.402498 -29.362871,-12.397089c-16.190318,-16.502338 -16.190318,-43.35416 0,-59.856498c7.843432,-7.993587 18.271128,-12.396084 29.362871,-12.396084s21.519439,4.402498 29.362871,12.396084c16.190318,16.502338 16.190318,43.35416 0,59.856498c-7.843432,7.994591 -18.271128,12.397089 -29.362871,12.397089zm0,-70.590599c-7.40796,0 -14.37158,2.940354 -19.609074,8.278785c-10.812922,11.021308 -10.812922,28.953654 0,39.973958c5.237494,5.33843 12.202099,8.278785 19.609074,8.278785s14.37158,-2.940354 19.609074,-8.278785c10.812922,-11.021308 10.812922,-28.953654 0,-39.973958c-5.237494,-5.33843 -12.201114,-8.278785 -19.609074,-8.278785z"/>
    </g>
    <g stroke="null" id="svg_8">
     <path stroke="null" id="svg_9" d="m317.304579,386.812626c-1.764551,0 -3.530086,-0.686886 -4.876899,-2.05865l-29.352033,-29.917705c-2.692639,-2.745536 -2.692639,-7.196236 0,-9.941772l55.732607,-56.806684c2.693624,-2.743527 7.060173,-2.743527 9.753797,0l29.352033,29.917705c2.692639,2.745536 2.692639,7.196236 0,9.941772l-55.732607,56.806684c-1.346812,1.372768 -3.112348,2.05865 -4.876899,2.05865zm-19.599221,-36.947241l19.599221,19.976937l45.979795,-46.865916l-19.599221,-19.976937l-45.979795,46.865916z"/>
    </g>
    <g stroke="null" id="svg_10">
     <path stroke="null" id="svg_11" d="m406.38532,499.000002c-1.74189,0 -3.483781,-0.667806 -4.824681,-2.00643l-100.62372,-100.421941c-1.31627,-1.313519 -2.062091,-3.109063 -2.071943,-4.985949s0.718234,-3.680464 2.019726,-5.008042l78.818564,-80.337553c1.29361,-1.31854 3.049293,-2.05865 4.876899,-2.05865c0.012808,0 0.023646,0 0.036454,0c1.841399,0.010042 3.602994,0.770236 4.891677,2.111873l98.523206,102.562937c2.645348,2.75357 2.621702,7.164101 -0.051232,9.889553l-76.71805,78.196557c-1.345827,1.369755 -3.111363,2.057646 -4.876899,2.057646zm-90.818691,-107.504701l90.767459,90.585612l67.066716,-68.359224l-88.872858,-92.516726l-68.961318,70.290338z"/>
    </g>
    <g stroke="null" id="svg_14">
     <path stroke="null" id="svg_15" d="m266.290248,305.711866c-1.035479,0 -2.073913,-0.236996 -3.03747,-0.719021c-2.283768,-1.143806 -3.765557,-3.474599 -3.854228,-6.065485c-1.16947,-34.219781 -28.409166,-61.024405 -62.012476,-61.024405s-60.843006,26.804625 -62.012476,61.025409c-0.088671,2.590886 -1.569475,4.921679 -3.853243,6.065485c-2.283768,1.141797 -4.999067,0.910827 -7.065099,-0.603536c-5.520255,-4.044996 -10.749867,-8.57503 -15.545977,-13.461561c-48.785736,-49.726937 -48.785736,-130.636895 0,-180.362828c23.633747,-24.089215 55.054767,-37.354954 88.476794,-37.354954s64.843048,13.265738 88.476794,37.353949s36.647677,56.115781 36.647677,90.181916s-13.014915,66.092701 -36.647677,90.181916c-4.795124,4.886532 -10.025721,9.415561 -15.545977,13.461561c-1.194101,0.874675 -2.606924,1.321553 -4.026643,1.321553zm-68.904174,-218.441824c-29.738244,0 -57.695189,11.803595 -78.722997,33.23665c-43.408339,44.244903 -43.408339,116.236389 0,160.480287c1.449276,1.477207 2.941903,2.916253 4.474924,4.315131c3.067027,-15.036177 10.471046,-28.811055 21.50466,-39.699806c14.216899,-14.031958 32.94813,-21.758422 52.743413,-21.758422s38.526514,7.726464 52.743413,21.758422c11.032629,10.888751 18.438618,24.663629 21.50466,39.699806c1.533021,-1.398878 3.025648,-2.837924 4.474924,-4.315131c21.027808,-21.433055 32.608225,-49.929789 32.608225,-80.240144c0,-30.311359 -11.580418,-58.807089 -32.609211,-80.240144c-21.026823,-21.433055 -48.984753,-33.23665 -78.722012,-33.23665z"/>
    </g>
    <g stroke="null" id="svg_16">
     <path stroke="null" id="svg_17" d="m197.386074,328.273664c-26.389441,0 -51.60744,-8.2587 -72.929832,-23.88335c-1.870956,-1.370759 -2.946829,-3.605148 -2.867025,-5.953013c0.685722,-20.077359 8.873,-38.842203 23.053445,-52.836c14.216899,-14.030954 32.94813,-21.757418 52.743413,-21.757418s38.526514,7.726464 52.743413,21.758422c14.180445,13.993798 22.367723,32.758641 23.053445,52.836c0.079804,2.347865 -0.99607,4.582253 -2.867025,5.953013c-21.322392,15.62465 -46.540392,23.882346 -72.929832,23.882346zm-61.777006,-33.105097c18.285907,12.472405 39.563964,19.046025 61.777006,19.046025s43.491099,-6.57362 61.777006,-19.046025c-2.954711,-32.402144 -29.414103,-57.265612 -61.777006,-57.265612s-58.822295,24.863468 -61.777006,57.265612z"/>
    </g>
   </g>
  </g>
 </g>
</svg>